<svg xmlns="http://www.w3.org/2000/svg" viewBox="0 0 48 48"><linearGradient id="a" x1="925.404" x2="937.689" y1="-322.522" y2="-335.87" gradientTransform="matrix(3.0757 0 0 -3.0757 -2840.537 -987.827)" gradientUnits="userSpaceOnUse"><stop offset="0" stop-color="#6EC5A6"/><stop offset="1" stop-color="#3FC0EF"/></linearGradient><path fill="url(#a)" d="M10 0h28c5.5 0 10 4.5 10 10v28c0 5.5-4.5 10-10 10H10C4.5 48 0 43.5 0 38V10C0 4.5 4.5 0 10 0z"/><path fill="#fff" d="M36.1 16.9l-3.3 3.3c-.5-.3-1.1-.5-1.7-.6.4-.3.7-.6 1-.9l4.6-4.6c.2-.2.2-.5 0-.7s-.5-.2-.7 0L33.4 16c.1-.3.1-.6.1-1 0-.3-.2-.5-.5-.5-.4 0-.7 0-1 .1l2.7-2.7c.2-.2.2-.5 0-.7s-.5-.2-.7 0l-4.6 4.6-.1.1c-.3.3-.5.5-.8.9-.1-.6-.3-1.1-.6-1.6l3.3-3.3c.2-.2.2-.5 0-.7s-.5-.2-.7 0l-3.2 3.2c-.1-.1-.2-.2-.3-.4-.2-.2-.5-.2-.7 0-.9.9-1.5 2.2-1.6 3.5-.2-.2-.3-.5-.5-.7-.2-.2-.5-.2-.7 0-1 1-1.5 2.2-1.6 3.5-.2-.2-.3-.5-.6-.7-.2-.2-.5-.2-.7 0-.9.9-1.5 2.2-1.6 3.5-.2-.2-.3-.5-.5-.7-.2-.2-.5-.2-.7 0-1 1-1.6 2.4-1.6 3.9 0 .9.3 1.8.7 2.6l-5.3 5.3c-.6.6-.6 1.5 0 2.1.3.3.7.4 1.1.4.4 0 .8-.1 1.1-.4l5.3-5.3c.8.5 1.8.7 2.7.7 1.4 0 2.8-.5 3.9-1.6.1-.1.1-.2.1-.4s-.1-.3-.1-.4c-.2-.2-.4-.4-.7-.5 1.3-.1 2.6-.6 3.5-1.6.1-.1.1-.2.1-.4s-.1-.3-.1-.4c-.2-.2-.4-.4-.7-.5 1.3-.1 2.5-.6 3.5-1.6.1-.1.1-.2.1-.4s-.1-.3-.1-.4c-.2-.2-.4-.4-.7-.6 1.3-.1 2.5-.6 3.5-1.6.1-.1.1-.2.1-.4s-.1-.3-.1-.4c-.1-.1-.3-.2-.4-.3l3.2-3.2c.2-.2.2-.5 0-.7s-.6.4-.8.6zM20.6 27.5c.2.2.4.4.7.5-.5 0-1.1.1-1.5.3.2-.5.3-1 .3-1.5.1.2.3.5.5.7zm2.8-2.9c.2.2.4.4.7.5-.5 0-1 .1-1.5.3.2-.5.3-1 .3-1.5.1.3.3.5.5.7zm2.8-2.8c.2.2.4.4.7.5-.5 0-1.1.1-1.5.3.2-.5.3-1 .3-1.5.2.3.3.5.5.7zm6.3-6.3c-.2 2.1-1.9 3.8-4.1 4.1.3-2.1 2-3.8 4.1-4.1zm-5.9-.4c.6.8 1 1.8 1 2.8s-.3 2-1 2.8c-.6-.8-1-1.8-1-2.8s.4-2 1-2.8zM23.8 18c1.3 1.6 1.3 3.9 0 5.6-1.3-1.7-1.3-4 0-5.6zm-2.9 2.8c.6.8 1 1.8 1 2.8s-.3 2-1 2.8c-.6-.8-1-1.8-1-2.8s.4-2 1-2.8zm-2.8 2.8c.6.8 1 1.8 1 2.8s-.3 2-1 2.8c-.6-.8-1-1.8-1-2.8s.4-2 1-2.8zm-5.2 12.2c-.2.2-.5.2-.7 0-.2-.2-.2-.5 0-.7l5.2-5.2c.1.1.2.3.3.4.1.1.2.2.4.3l-5.2 5.2zm6-5.8c1.6-1.3 4-1.3 5.6 0-1.7 1.2-4 1.2-5.6 0zm2.8-2.9c1.6-1.3 3.9-1.3 5.6 0-1.6 1.3-4 1.3-5.6 0zm2.8-2.8c1.6-1.3 4-1.3 5.6 0-1.6 1.3-4 1.3-5.6 0zm2.8-2.8c1.6-1.3 4-1.3 5.6 0-1.6 1.2-3.9 1.2-5.6 0z"/></svg>